<svg data-v-fde0c5aa="" xmlns="http://www.w3.org/2000/svg" viewBox="0 0 300 300" class="iconAbove"><!----><defs data-v-fde0c5aa=""><!----></defs><rect data-v-fde0c5aa="" fill="transparent" x="0" y="0" width="300px" height="300px" class="logo-background-square"></rect><defs data-v-fde0c5aa=""><!----></defs><g data-v-fde0c5aa="" id="00ba4cd7-5906-4144-8223-3a58161ff25d" fill="#000000" transform="matrix(3.66141030821538,0,0,3.66141030821538,35.4874640141942,178.86314987453054)"><path d="M7.71 6.23L7.71 6.23L7.71 6.23Q7.70 7.88 7.68 8.97L7.68 8.97L7.68 8.97Q7.67 10.06 7.66 10.72L7.66 10.72L7.66 10.72Q7.65 11.49 7.64 11.92L7.64 11.92L7.64 11.92Q7.64 12.41 7.57 12.91L7.57 12.91L7.57 12.91Q7.51 13.41 7.27 13.91L7.27 13.91L7.27 13.91Q7.03 14.42 6.55 14.94L6.55 14.94L6.55 14.94Q6.07 15.46 5.24 16.01L5.24 16.01L5.24 16.01Q4.70 16.36 4.25 16.59L4.25 16.59L4.25 16.59Q3.79 16.83 3.39 16.97L3.39 16.97L3.39 16.97Q2.99 17.12 2.64 17.18L2.64 17.18L2.64 17.18Q2.30 17.24 1.99 17.24L1.99 17.24L1.99 17.24Q1.86 17.24 1.63 17.22L1.63 17.22L1.63 17.22Q1.39 17.19 1.14 17.14L1.14 17.14L1.14 17.14Q0.88 17.08 0.63 17.00L0.63 17.00L0.63 17.00Q0.38 16.91 0.21 16.79L0.21 16.79L0.21 16.79Q0.03 16.67-0.02 16.52L-0.02 16.52L-0.02 16.52Q-0.08 16.36 0.05 16.17L0.05 16.17L0.05 16.17Q0.19 16.00 0.42 15.80L0.42 15.80L0.42 15.80Q0.61 15.63 0.91 15.40L0.91 15.40L0.91 15.40Q1.22 15.18 1.65 14.93L1.65 14.93L1.65 14.93Q1.57 15.05 1.57 15.15L1.57 15.15L1.57 15.15Q1.57 15.25 1.61 15.32L1.61 15.32L1.61 15.32Q1.64 15.40 1.72 15.46L1.72 15.46L1.72 15.46Q1.80 15.52 2.03 15.61L2.03 15.61L2.03 15.61Q2.26 15.70 2.58 15.79L2.58 15.79L2.58 15.79Q2.91 15.89 3.29 15.96L3.29 15.96L3.29 15.96Q3.67 16.02 4.05 16.02L4.05 16.02L4.05 16.02Q4.54 16.02 4.87 15.87L4.87 15.87L4.87 15.87Q5.20 15.71 5.41 15.44L5.41 15.44L5.41 15.44Q5.63 15.18 5.74 14.83L5.74 14.83L5.74 14.83Q5.85 14.48 5.90 14.10L5.90 14.10L5.90 14.10Q5.95 13.71 5.95 13.32L5.95 13.32L5.95 13.32Q5.96 12.92 5.96 12.56L5.96 12.56L5.96 12.56Q5.96 11.76 5.97 11.04L5.97 11.04L5.97 11.04Q5.98 10.33 5.99 9.68L5.99 9.68L5.99 9.68Q6.00 9.02 5.99 8.41L5.99 8.41L5.99 8.41Q5.99 7.80 5.96 7.21L5.96 7.21L5.96 7.21Q5.74 7.17 5.54 7.16L5.54 7.16L5.54 7.16Q5.35 7.15 5.17 7.15L5.17 7.15L5.17 7.15Q4.79 7.15 4.49 7.20L4.49 7.20L4.49 7.20Q4.20 7.25 4.00 7.30L4.00 7.30L4.00 7.30Q3.80 7.36 3.69 7.41L3.69 7.41L3.69 7.41Q3.58 7.46 3.55 7.47L3.55 7.47L3.55 7.47Q3.88 7.20 4.18 6.97L4.18 6.97L4.18 6.97Q4.48 6.73 4.79 6.56L4.79 6.56L4.79 6.56Q5.10 6.39 5.43 6.30L5.43 6.30L5.43 6.30Q5.76 6.20 6.15 6.20L6.15 6.20L6.15 6.20Q6.54 6.20 6.95 6.22L6.95 6.22L6.95 6.22Q7.36 6.25 7.71 6.23ZM19.07 15.49L19.07 15.49L19.07 15.49Q18.79 15.78 18.45 16.01L18.45 16.01L18.45 16.01Q18.12 16.25 17.79 16.42L17.79 16.42L17.79 16.42Q17.45 16.59 17.14 16.69L17.14 16.69L17.14 16.69Q16.82 16.80 16.56 16.81L16.56 16.81L16.56 16.81Q16.42 16.82 16.19 16.81L16.19 16.81L16.19 16.81Q15.97 16.79 15.76 16.69L15.76 16.69L15.76 16.69Q15.55 16.58 15.40 16.37L15.40 16.37L15.40 16.37Q15.25 16.15 15.25 15.74L15.25 15.74L15.25 14.93L15.25 14.93Q14.88 15.30 14.46 15.64L14.46 15.64L14.46 15.64Q14.04 15.98 13.60 16.24L13.60 16.24L13.60 16.24Q13.16 16.50 12.71 16.66L12.71 16.66L12.71 16.66Q12.26 16.81 11.82 16.81L11.82 16.81L11.82 16.81Q11.26 16.81 10.83 16.56L10.83 16.56L10.83 16.56Q10.41 16.31 10.12 15.91L10.12 15.91L10.12 15.91Q9.84 15.52 9.69 15.03L9.69 15.03L9.69 15.03Q9.55 14.53 9.55 14.05L9.55 14.05L9.55 14.05Q9.55 13.69 9.60 13.33L9.60 13.33L9.60 13.33Q9.66 12.98 9.74 12.67L9.74 12.67L9.74 12.67Q9.83 12.35 9.94 12.10L9.94 12.10L9.94 12.10Q10.06 11.85 10.18 11.68L10.18 11.68L10.18 11.68Q10.40 11.38 10.75 11.09L10.75 11.09L10.75 11.09Q11.10 10.80 11.52 10.55L11.52 10.55L11.52 10.55Q11.93 10.29 12.39 10.09L12.39 10.09L12.39 10.09Q12.86 9.88 13.32 9.73L13.32 9.73L13.32 9.73Q13.78 9.58 14.22 9.50L14.22 9.50L14.22 9.50Q14.66 9.42 15.03 9.42L15.03 9.42L15.03 9.42Q15.41 9.42 15.93 9.46L15.93 9.46L15.93 9.46Q16.45 9.50 17.11 9.61L17.11 9.61L17.11 9.61Q17.08 10.40 17.06 11.00L17.06 11.00L17.06 11.00Q17.04 11.60 17.03 12.08L17.03 12.08L17.03 12.08Q17.01 12.55 17.01 12.94L17.01 12.94L17.01 12.94Q17.00 13.33 17.00 13.70L17.00 13.70L17.00 13.70Q17.00 14.08 16.99 14.44L16.99 14.44L16.99 14.44Q16.97 14.80 17.04 15.09L17.04 15.09L17.04 15.09Q17.11 15.37 17.31 15.55L17.31 15.55L17.31 15.55Q17.51 15.73 17.94 15.73L17.94 15.73L17.94 15.73Q18.19 15.73 18.48 15.66L18.48 15.66L18.48 15.66Q18.76 15.60 19.07 15.49ZM15.26 10.60L15.26 10.60L15.26 10.60Q14.85 10.49 14.39 10.44L14.39 10.44L14.39 10.44Q13.92 10.40 13.50 10.40L13.50 10.40L13.50 10.40Q13.27 10.40 13.06 10.41L13.06 10.41L13.06 10.41Q12.85 10.42 12.68 10.45L12.68 10.45L12.68 10.45Q12.51 10.47 12.38 10.50L12.38 10.50L12.38 10.50Q12.25 10.53 12.18 10.57L12.18 10.57L12.18 10.57Q12.06 10.63 11.89 10.87L11.89 10.87L11.89 10.87Q11.73 11.10 11.58 11.45L11.58 11.45L11.58 11.45Q11.43 11.80 11.32 12.24L11.32 12.24L11.32 12.24Q11.22 12.67 11.22 13.14L11.22 13.14L11.22 13.14Q11.22 13.58 11.35 14.03L11.35 14.03L11.35 14.03Q11.48 14.48 11.73 14.83L11.73 14.83L11.73 14.83Q11.98 15.19 12.34 15.41L12.34 15.41L12.34 15.41Q12.71 15.63 13.18 15.63L13.18 15.63L13.18 15.63Q13.62 15.63 13.97 15.49L13.97 15.49L13.97 15.49Q14.31 15.35 14.56 15.10L14.56 15.10L14.56 15.10Q14.81 14.85 14.98 14.51L14.98 14.51L14.98 14.51Q15.15 14.18 15.25 13.79L15.25 13.79L15.25 13.79Q15.25 13.50 15.25 13.18L15.25 13.18L15.25 13.18Q15.25 12.85 15.25 12.46L15.25 12.46L15.25 12.46Q15.25 12.07 15.25 11.61L15.25 11.61L15.25 11.61Q15.26 11.15 15.26 10.60ZM28.97 15.49L28.97 15.49L28.97 15.49Q28.68 15.78 28.35 16.01L28.35 16.01L28.35 16.01Q28.02 16.25 27.69 16.42L27.69 16.42L27.69 16.42Q27.35 16.59 27.04 16.69L27.04 16.69L27.04 16.69Q26.72 16.80 26.46 16.81L26.46 16.81L26.46 16.81Q26.32 16.82 26.09 16.81L26.09 16.81L26.09 16.81Q25.87 16.79 25.66 16.69L25.66 16.69L25.66 16.69Q25.45 16.58 25.30 16.37L25.30 16.37L25.30 16.37Q25.15 16.15 25.15 15.74L25.15 15.74L25.15 14.93L25.15 14.93Q24.77 15.30 24.36 15.64L24.36 15.64L24.36 15.64Q23.94 15.98 23.50 16.24L23.50 16.24L23.50 16.24Q23.06 16.50 22.61 16.66L22.61 16.66L22.61 16.66Q22.16 16.81 21.72 16.81L21.72 16.81L21.72 16.81Q21.16 16.81 20.73 16.56L20.73 16.56L20.73 16.56Q20.31 16.31 20.02 15.91L20.02 15.91L20.02 15.91Q19.74 15.52 19.59 15.03L19.59 15.03L19.59 15.03Q19.45 14.53 19.45 14.05L19.45 14.05L19.45 14.05Q19.45 13.69 19.50 13.33L19.50 13.33L19.50 13.33Q19.56 12.98 19.64 12.67L19.64 12.67L19.64 12.67Q19.73 12.35 19.84 12.10L19.84 12.10L19.84 12.10Q19.95 11.85 20.08 11.68L20.08 11.68L20.08 11.68Q20.30 11.38 20.65 11.09L20.65 11.09L20.65 11.09Q21 10.80 21.41 10.55L21.41 10.55L21.41 10.55Q21.83 10.29 22.29 10.09L22.29 10.09L22.29 10.09Q22.76 9.88 23.22 9.73L23.22 9.73L23.22 9.73Q23.68 9.58 24.12 9.50L24.12 9.50L24.12 9.50Q24.55 9.42 24.92 9.42L24.92 9.42L24.92 9.42Q25.31 9.42 25.83 9.46L25.83 9.46L25.83 9.46Q26.35 9.50 27.01 9.61L27.01 9.61L27.01 9.61Q26.98 10.40 26.96 11.00L26.96 11.00L26.96 11.00Q26.94 11.60 26.93 12.08L26.93 12.08L26.93 12.08Q26.91 12.55 26.91 12.94L26.91 12.94L26.91 12.94Q26.90 13.33 26.90 13.70L26.90 13.70L26.90 13.70Q26.90 14.08 26.89 14.44L26.89 14.44L26.89 14.44Q26.87 14.80 26.94 15.09L26.94 15.09L26.94 15.09Q27.01 15.37 27.21 15.55L27.21 15.55L27.21 15.55Q27.41 15.73 27.84 15.73L27.84 15.73L27.84 15.73Q28.09 15.73 28.38 15.66L28.38 15.66L28.38 15.66Q28.66 15.60 28.97 15.49ZM25.16 10.60L25.16 10.60L25.16 10.60Q24.75 10.49 24.29 10.44L24.29 10.44L24.29 10.44Q23.82 10.40 23.40 10.40L23.40 10.40L23.40 10.40Q23.17 10.40 22.96 10.41L22.96 10.41L22.96 10.41Q22.75 10.42 22.58 10.45L22.58 10.45L22.58 10.45Q22.41 10.47 22.28 10.50L22.28 10.50L22.28 10.50Q22.15 10.53 22.08 10.57L22.08 10.57L22.08 10.57Q21.96 10.63 21.79 10.87L21.79 10.87L21.79 10.87Q21.63 11.10 21.48 11.45L21.48 11.45L21.48 11.45Q21.33 11.80 21.22 12.24L21.22 12.24L21.22 12.24Q21.12 12.67 21.12 13.14L21.12 13.14L21.12 13.14Q21.12 13.58 21.25 14.03L21.25 14.03L21.25 14.03Q21.38 14.48 21.63 14.83L21.63 14.83L21.63 14.83Q21.88 15.19 22.24 15.41L22.24 15.41L22.24 15.41Q22.61 15.63 23.08 15.63L23.08 15.63L23.08 15.63Q23.52 15.63 23.86 15.49L23.86 15.49L23.86 15.49Q24.21 15.35 24.46 15.10L24.46 15.10L24.46 15.10Q24.71 14.85 24.88 14.51L24.88 14.51L24.88 14.51Q25.05 14.18 25.15 13.79L25.15 13.79L25.15 13.79Q25.15 13.50 25.15 13.18L25.15 13.18L25.15 13.18Q25.15 12.85 25.15 12.46L25.15 12.46L25.15 12.46Q25.15 12.07 25.15 11.61L25.15 11.61L25.15 11.61Q25.16 11.15 25.16 10.60ZM31.98 15.78L31.98 15.78L30.34 16.96L30.34 16.96Q30.41 15.64 30.44 14.71L30.44 14.71L30.44 14.71Q30.47 13.78 30.49 13.18L30.49 13.18L30.49 13.18Q30.51 12.48 30.51 12.02L30.51 12.02L30.51 12.02Q30.54 11.19 30.28 10.72L30.28 10.72L30.28 10.72Q30.02 10.25 29.49 10.25L29.49 10.25L29.49 10.25Q29.32 10.25 29.13 10.31L29.13 10.31L29.13 10.31Q28.94 10.36 28.73 10.45L28.73 10.45L28.73 10.45Q29.00 10.26 29.29 10.06L29.29 10.06L29.29 10.06Q29.59 9.86 29.89 9.69L29.89 9.69L29.89 9.69Q30.20 9.53 30.51 9.42L30.51 9.42L30.51 9.42Q30.82 9.32 31.12 9.32L31.12 9.32L31.12 9.32Q31.41 9.32 31.65 9.43L31.65 9.43L31.65 9.43Q31.88 9.55 32.01 9.82L32.01 9.82L32.01 9.82Q32.12 10.06 32.16 10.34L32.16 10.34L32.16 10.34Q32.20 10.63 32.22 10.97L32.22 10.97L32.22 10.97Q32.57 10.60 33.00 10.28L33.00 10.28L33.00 10.28Q33.43 9.96 33.91 9.73L33.91 9.73L33.91 9.73Q34.38 9.51 34.86 9.40L34.86 9.40L34.86 9.40Q35.33 9.29 35.76 9.34L35.76 9.34L35.76 9.34Q36.07 9.39 36.40 9.52L36.40 9.52L36.40 9.52Q36.73 9.65 37.01 9.91L37.01 9.91L37.01 9.91Q37.28 10.18 37.45 10.61L37.45 10.61L37.45 10.61Q37.63 11.05 37.61 11.70L37.61 11.70L37.61 11.70Q37.59 12.46 37.54 13.10L37.54 13.10L37.54 13.10Q37.50 13.74 37.50 14.23L37.50 14.23L37.50 14.23Q37.50 14.53 37.54 14.79L37.54 14.79L37.54 14.79Q37.59 15.05 37.71 15.25L37.71 15.25L37.71 15.25Q37.83 15.44 38.04 15.56L38.04 15.56L38.04 15.56Q38.24 15.67 38.55 15.67L38.55 15.67L38.55 15.67Q38.82 15.67 39.13 15.57L39.13 15.57L39.13 15.57Q39.43 15.46 39.74 15.24L39.74 15.24L39.74 15.24Q39.24 15.69 38.82 15.99L38.82 15.99L38.82 15.99Q38.41 16.29 38.06 16.47L38.06 16.47L38.06 16.47Q37.70 16.66 37.39 16.74L37.39 16.74L37.39 16.74Q37.08 16.82 36.80 16.81L36.80 16.81L36.80 16.81Q36.51 16.80 36.31 16.70L36.31 16.70L36.31 16.70Q36.10 16.59 35.98 16.37L35.98 16.37L35.98 16.37Q35.85 16.15 35.81 15.79L35.81 15.79L35.81 15.79Q35.76 15.44 35.77 14.93L35.77 14.93L35.77 14.93Q35.79 14.48 35.83 13.94L35.83 13.94L35.83 13.94Q35.86 13.39 35.86 12.86L35.86 12.86L35.86 12.86Q35.86 12.25 35.78 11.81L35.78 11.81L35.78 11.81Q35.70 11.38 35.48 11.09L35.48 11.09L35.48 11.09Q35.27 10.81 34.89 10.67L34.89 10.67L34.89 10.67Q34.51 10.53 33.91 10.53L33.91 10.53L33.91 10.53Q33.48 10.53 33.18 10.70L33.18 10.70L33.18 10.70Q32.88 10.87 32.68 11.16L32.68 11.16L32.68 11.16Q32.48 11.44 32.37 11.82L32.37 11.82L32.37 11.82Q32.26 12.20 32.20 12.63L32.20 12.63L32.20 12.63Q32.14 13.06 32.12 13.50L32.12 13.50L32.12 13.50Q32.10 13.95 32.09 14.37L32.09 14.37L32.09 14.37Q32.08 14.79 32.06 15.15L32.06 15.15L32.06 15.15Q32.04 15.52 31.98 15.78ZM46.95 3.77L46.95 3.77L46.95 3.77Q46.95 3.99 46.96 4.18L46.96 4.18L46.96 4.18Q46.96 4.38 46.96 4.56L46.96 4.56L46.96 4.56Q46.96 4.94 46.89 5.22L46.89 5.22L46.89 5.22Q46.82 5.50 46.57 5.65L46.57 5.65L46.57 5.65Q46.42 5.76 46.19 5.91L46.19 5.91L46.19 5.91Q45.99 6.04 45.70 6.22L45.70 6.22L45.70 6.22Q45.40 6.41 44.99 6.66L44.99 6.66L44.99 6.66Q45.07 6.44 45.11 6.13L45.11 6.13L45.11 6.13Q45.14 5.82 45.16 5.54L45.16 5.54L45.16 5.54Q45.17 5.21 45.16 4.85L45.16 4.85L45.16 4.85Q45.58 4.63 45.91 4.43L45.91 4.43L45.91 4.43Q46.25 4.24 46.48 4.09L46.48 4.09L46.48 4.09Q46.75 3.92 46.95 3.77ZM46.74 10.04L46.74 10.04L46.74 10.04Q46.77 10.16 46.78 10.57L46.78 10.57L46.78 10.57Q46.79 10.98 46.79 11.57L46.79 11.57L46.79 11.57Q46.79 12.09 46.79 12.69L46.79 12.69L46.79 12.69Q46.78 13.30 46.77 13.93L46.77 13.93L46.77 13.93Q46.76 14.55 46.74 15.16L46.74 15.16L46.74 15.16Q46.73 15.76 46.72 16.27L46.72 16.27L46.72 16.27Q46.70 16.78 46.69 17.14L46.69 17.14L46.69 17.14Q46.68 17.51 46.68 17.66L46.68 17.66L46.68 17.66Q46.66 18.43 46.09 19.26L46.09 19.26L46.09 19.26Q45.51 20.09 44.33 20.92L44.33 20.92L44.33 20.92Q43.85 21.27 43.38 21.50L43.38 21.50L43.38 21.50Q42.92 21.74 42.49 21.88L42.49 21.88L42.49 21.88Q42.07 22.03 41.69 22.09L41.69 22.09L41.69 22.09Q41.31 22.16 41.00 22.16L41.00 22.16L41.00 22.16Q40.81 22.16 40.56 22.11L40.56 22.11L40.56 22.11Q40.32 22.07 40.07 21.98L40.07 21.98L40.07 21.98Q39.82 21.90 39.59 21.79L39.59 21.79L39.59 21.79Q39.35 21.68 39.21 21.55L39.21 21.55L39.21 21.55Q39.06 21.42 39.03 21.28L39.03 21.28L39.03 21.28Q38.99 21.14 39.12 21.01L39.12 21.01L39.12 21.01Q39.26 20.88 39.50 20.70L39.50 20.70L39.50 20.70Q39.70 20.54 40.04 20.30L40.04 20.30L40.04 20.30Q40.39 20.06 40.90 19.71L40.90 19.71L40.90 19.71Q40.80 19.80 40.77 19.90L40.77 19.90L40.77 19.90Q40.73 19.99 40.73 20.07L40.73 20.07L40.73 20.07Q40.73 20.25 40.87 20.39L40.87 20.39L40.87 20.39Q41.02 20.52 41.24 20.61L41.24 20.61L41.24 20.61Q41.46 20.71 41.73 20.76L41.73 20.76L41.73 20.76Q42.01 20.82 42.27 20.86L42.27 20.86L42.27 20.86Q42.53 20.89 42.74 20.90L42.74 20.90L42.74 20.90Q42.95 20.91 43.05 20.91L43.05 20.91L43.05 20.91Q43.48 20.91 43.79 20.77L43.79 20.77L43.79 20.77Q44.10 20.64 44.31 20.41L44.31 20.41L44.31 20.41Q44.52 20.17 44.64 19.87L44.64 19.87L44.64 19.87Q44.77 19.56 44.84 19.22L44.84 19.22L44.84 19.22Q44.91 18.87 44.93 18.52L44.93 18.52L44.93 18.52Q44.95 18.16 44.96 17.83L44.96 17.83L44.96 17.83Q44.96 17.74 44.97 17.39L44.97 17.39L44.97 17.39Q44.97 17.04 44.98 16.52L44.98 16.52L44.98 16.52Q44.99 16.01 44.99 15.39L44.99 15.39L44.99 15.39Q45.00 14.77 45.00 14.14L45.00 14.14L45.00 14.14Q45.01 13.51 45.01 12.93L45.01 12.93L45.01 12.93Q45.01 12.35 45.01 11.92L45.01 11.92L45.01 11.92Q45.01 11.07 44.88 10.70L44.88 10.70L44.88 10.70Q44.75 10.33 44.40 10.33L44.40 10.33L44.40 10.33Q44.28 10.33 44.15 10.36L44.15 10.36L44.15 10.36Q44.01 10.38 43.85 10.44L43.85 10.44L43.85 10.44Q44.08 10.27 44.34 10.10L44.34 10.10L44.34 10.10Q44.59 9.93 44.86 9.79L44.86 9.79L44.86 9.79Q45.12 9.65 45.40 9.56L45.40 9.56L45.40 9.56Q45.67 9.47 45.95 9.47L45.95 9.47L45.95 9.47Q46.24 9.47 46.46 9.60L46.46 9.60L46.46 9.60Q46.68 9.73 46.74 10.04ZM51.50 3.77L51.50 3.77L51.50 3.77Q51.50 3.97 51.50 4.15L51.50 4.15L51.50 4.15Q51.51 4.33 51.51 4.50L51.51 4.50L51.51 4.50Q51.51 4.91 51.44 5.20L51.44 5.20L51.44 5.20Q51.37 5.48 51.12 5.65L51.12 5.65L51.12 5.65Q50.97 5.76 50.74 5.91L50.74 5.91L50.74 5.91Q50.37 6.15 49.53 6.66L49.53 6.66L49.53 6.66Q49.62 6.44 49.65 6.13L49.65 6.13L49.65 6.13Q49.69 5.82 49.70 5.54L49.70 5.54L49.70 5.54Q49.72 5.21 49.70 4.85L49.70 4.85L49.70 4.85Q50.13 4.63 50.46 4.43L50.46 4.43L50.46 4.43Q50.79 4.24 51.02 4.09L51.02 4.09L51.02 4.09Q51.30 3.92 51.50 3.77ZM53.90 15.42L53.90 15.42L53.90 15.42Q53.12 15.93 52.58 16.23L52.58 16.23L52.58 16.23Q52.04 16.52 51.65 16.67L51.65 16.67L51.65 16.67Q51.26 16.81 50.99 16.83L50.99 16.83L50.99 16.83Q50.72 16.85 50.50 16.81L50.50 16.81L50.50 16.81Q50.31 16.78 50.11 16.71L50.11 16.71L50.11 16.71Q49.92 16.64 49.77 16.46L49.77 16.46L49.77 16.46Q49.62 16.28 49.52 15.93L49.52 15.93L49.52 15.93Q49.42 15.59 49.42 15.00L49.42 15.00L49.42 15.00Q49.42 14.51 49.45 14.03L49.45 14.03L49.45 14.03Q49.48 13.55 49.51 13.07L49.51 13.07L49.51 13.07Q49.54 12.60 49.56 12.13L49.56 12.13L49.56 12.13Q49.57 11.66 49.56 11.20L49.56 11.20L49.56 11.20Q49.55 10.75 49.40 10.54L49.40 10.54L49.40 10.54Q49.25 10.33 48.95 10.33L48.95 10.33L48.95 10.33Q48.83 10.33 48.69 10.36L48.69 10.36L48.69 10.36Q48.56 10.38 48.40 10.44L48.40 10.44L48.40 10.44Q48.64 10.27 48.90 10.09L48.90 10.09L48.90 10.09Q49.16 9.92 49.43 9.78L49.43 9.78L49.43 9.78Q49.70 9.65 49.97 9.56L49.97 9.56L49.97 9.56Q50.24 9.47 50.50 9.47L50.50 9.47L50.50 9.47Q50.79 9.47 51.01 9.60L51.01 9.60L51.01 9.60Q51.22 9.73 51.28 10.04L51.28 10.04L51.28 10.04Q51.30 10.15 51.31 10.38L51.31 10.38L51.31 10.38Q51.32 10.60 51.32 10.90L51.32 10.90L51.32 10.90Q51.32 11.35 51.31 11.89L51.31 11.89L51.31 11.89Q51.29 12.43 51.27 12.95L51.27 12.95L51.27 12.95Q51.25 13.47 51.23 13.91L51.23 13.91L51.23 13.91Q51.21 14.36 51.20 14.59L51.20 14.59L51.20 14.59Q51.19 14.82 51.28 15.05L51.28 15.05L51.28 15.05Q51.37 15.27 51.55 15.45L51.55 15.45L51.55 15.45Q51.72 15.63 51.98 15.75L51.98 15.75L51.98 15.75Q52.23 15.86 52.56 15.86L52.56 15.86L52.56 15.86Q52.85 15.86 53.18 15.76L53.18 15.76L53.18 15.76Q53.52 15.65 53.90 15.42ZM56.66 3.77L56.66 3.77L56.66 3.77Q56.66 3.97 56.67 4.15L56.67 4.15L56.67 4.15Q56.68 4.33 56.68 4.50L56.68 4.50L56.68 4.50Q56.68 4.91 56.61 5.20L56.61 5.20L56.61 5.20Q56.54 5.48 56.29 5.65L56.29 5.65L56.29 5.65Q56.14 5.76 55.91 5.91L55.91 5.91L55.91 5.91Q55.54 6.15 54.70 6.66L54.70 6.66L54.70 6.66Q54.78 6.44 54.82 6.13L54.82 6.13L54.82 6.13Q54.86 5.82 54.87 5.54L54.87 5.54L54.87 5.54Q54.89 5.21 54.87 4.85L54.87 4.85L54.87 4.85Q55.30 4.63 55.63 4.43L55.63 4.43L55.63 4.43Q55.96 4.24 56.19 4.09L56.19 4.09L56.19 4.09Q56.46 3.92 56.66 3.77ZM59.07 15.42L59.07 15.42L59.07 15.42Q58.29 15.93 57.75 16.23L57.75 16.23L57.75 16.23Q57.20 16.52 56.81 16.67L56.81 16.67L56.81 16.67Q56.42 16.81 56.16 16.83L56.16 16.83L56.16 16.83Q55.89 16.85 55.67 16.81L55.67 16.81L55.67 16.81Q55.47 16.78 55.28 16.71L55.28 16.71L55.28 16.71Q55.09 16.64 54.94 16.46L54.94 16.46L54.94 16.46Q54.78 16.28 54.69 15.93L54.69 15.93L54.69 15.93Q54.59 15.59 54.59 15.00L54.59 15.00L54.59 15.00Q54.59 14.51 54.62 14.03L54.62 14.03L54.62 14.03Q54.65 13.55 54.68 13.07L54.68 13.07L54.68 13.07Q54.71 12.60 54.73 12.13L54.73 12.13L54.73 12.13Q54.74 11.66 54.73 11.20L54.73 11.20L54.73 11.20Q54.71 10.75 54.56 10.54L54.56 10.54L54.56 10.54Q54.41 10.33 54.11 10.33L54.11 10.33L54.11 10.33Q54.00 10.33 53.86 10.36L53.86 10.36L53.86 10.36Q53.72 10.38 53.57 10.44L53.57 10.44L53.57 10.44Q53.81 10.27 54.07 10.09L54.07 10.09L54.07 10.09Q54.33 9.92 54.60 9.78L54.60 9.78L54.60 9.78Q54.87 9.65 55.14 9.56L55.14 9.56L55.14 9.56Q55.41 9.47 55.67 9.47L55.67 9.47L55.67 9.47Q55.96 9.47 56.17 9.60L56.17 9.60L56.17 9.60Q56.39 9.73 56.45 10.04L56.45 10.04L56.45 10.04Q56.47 10.15 56.48 10.38L56.48 10.38L56.48 10.38Q56.49 10.60 56.49 10.90L56.49 10.90L56.49 10.90Q56.49 11.35 56.48 11.89L56.48 11.89L56.48 11.89Q56.46 12.43 56.44 12.95L56.44 12.95L56.44 12.95Q56.42 13.47 56.40 13.91L56.40 13.91L56.40 13.91Q56.38 14.36 56.37 14.59L56.37 14.59L56.37 14.59Q56.36 14.82 56.45 15.05L56.45 15.05L56.45 15.05Q56.54 15.27 56.71 15.45L56.71 15.45L56.71 15.45Q56.89 15.63 57.15 15.75L57.15 15.75L57.15 15.75Q57.40 15.86 57.73 15.86L57.73 15.86L57.73 15.86Q58.02 15.86 58.35 15.76L58.35 15.76L58.35 15.76Q58.69 15.65 59.07 15.42ZM62.21 13.36L62.21 13.36L62.21 13.36Q61.68 13.77 61.30 13.99L61.30 13.99L61.30 13.99Q60.92 14.22 60.66 14.33L60.66 14.33L60.66 14.33Q60.37 14.46 60.16 14.50L60.16 14.50L60.16 14.50Q59.83 14.54 59.70 14.35L59.70 14.35L59.70 14.35Q59.57 14.15 59.59 13.70L59.59 13.70L59.59 13.70Q59.59 13.58 59.60 13.30L59.60 13.30L59.60 13.30Q59.61 13.01 59.63 12.61L59.63 12.61L59.63 12.61Q59.64 12.22 59.66 11.74L59.66 11.74L59.66 11.74Q59.68 11.27 59.70 10.78L59.70 10.78L59.70 10.78Q59.72 10.29 59.74 9.82L59.74 9.82L59.74 9.82Q59.75 9.35 59.77 8.96L59.77 8.96L59.77 8.96Q59.79 8.57 59.80 8.28L59.80 8.28L59.80 8.28Q59.81 8.00 59.81 7.89L59.81 7.89L59.81 7.89Q59.81 7.73 59.73 7.61L59.73 7.61L59.73 7.61Q59.65 7.51 59.49 7.43L59.49 7.43L59.49 7.43Q59.34 7.36 59.03 7.39L59.03 7.39L59.03 7.39Q59.25 7.24 59.52 7.04L59.52 7.04L59.52 7.04Q59.79 6.85 60.07 6.68L60.07 6.68L60.07 6.68Q60.35 6.50 60.61 6.38L60.61 6.38L60.61 6.38Q60.88 6.25 61.10 6.25L61.10 6.25L61.10 6.25Q61.28 6.25 61.39 6.35L61.39 6.35L61.39 6.35Q61.51 6.44 61.51 6.63L61.51 6.63L61.51 6.63Q61.51 6.71 61.50 7.00L61.50 7.00L61.50 7.00Q61.50 7.29 61.49 7.72L61.49 7.72L61.49 7.72Q61.48 8.14 61.47 8.66L61.47 8.66L61.47 8.66Q61.46 9.17 61.44 9.71L61.44 9.71L61.44 9.71Q61.43 10.25 61.41 10.77L61.41 10.77L61.41 10.77Q61.40 11.29 61.39 11.72L61.39 11.72L61.39 11.72Q61.38 12.15 61.37 12.46L61.37 12.46L61.37 12.46Q61.36 12.76 61.35 12.86L61.35 12.86L61.35 12.86Q61.34 13.00 61.43 13.12L61.43 13.12L61.43 13.12Q61.52 13.23 61.65 13.31L61.65 13.31L61.65 13.31Q61.78 13.38 61.93 13.40L61.93 13.40L61.93 13.40Q62.08 13.41 62.21 13.36ZM62.59 15.94L62.59 15.94L62.59 15.94Q62.27 16.17 61.96 16.38L61.96 16.38L61.96 16.38Q61.66 16.60 61.40 16.76L61.40 16.76L61.40 16.76Q61.13 16.93 60.93 17.03L60.93 17.03L60.93 17.03Q60.72 17.13 60.60 17.13L60.60 17.13L60.60 17.13Q60.48 17.12 60.31 17.02L60.31 17.02L60.31 17.02Q60.15 16.94 59.90 16.77L59.90 16.77L59.90 16.77Q59.65 16.60 59.28 16.28L59.28 16.28L60.89 15.13L60.89 15.13Q61.28 15.46 61.59 15.62L61.59 15.62L61.59 15.62Q61.91 15.78 62.13 15.86L62.13 15.86L62.13 15.86Q62.38 15.94 62.59 15.94Z"></path></g><defs data-v-fde0c5aa=""><linearGradient data-v-fde0c5aa="" gradientTransform="rotate(25)" id="612b2511-1cd3-4bd5-ad07-e94c72a16c30" x1="0%" y1="0%" x2="100%" y2="0%"><stop data-v-fde0c5aa="" offset="0%" stop-color="#8D2CE3" stop-opacity="1"></stop><stop data-v-fde0c5aa="" offset="100%" stop-color="#F7C6F6" stop-opacity="1"></stop></linearGradient></defs><g data-v-fde0c5aa="" id="a2664d51-d2a9-49d9-9725-ca663a91f07d" stroke="none" fill="url(#612b2511-1cd3-4bd5-ad07-e94c72a16c30)" transform="matrix(2.8120866686081945,0,0,2.8120866686081945,79.69624933791036,37.031911492197885)"><g clip-rule="evenodd"><path d="M24.961 14.028c2.389 2.503 5.177 5.631 9.611 4.662 1.195 3.926 4.834 5.745 9.669 5.518l-.968 1.877-2.22 1.25c-7.22-.453-11.996-3.696-14.726-6.369l-.114-.399-.228.058c-.797-.739-1.365-1.478-1.764-1.989l-.169-2.958.909-1.65zm14.56 14.842l-6.083 6.027-2.674 1.139-1.254-4.321c3.868-1.479 7.339-2.845 8.079-3.128.624.113 1.249.226 1.932.283zm-10.407 7.848l-4.608 1.99-1.419-4.664a166.665 166.665 0 0 0 4.777-1.704l1.25 4.378zm-6.257 2.674l-2.158.965.85-5.287 1.308 4.322zm6.826-.741l-.057-.228-4.607 1.989.68 2.162 3.984-3.923zm-5.403 5.346l-5.005 4.947 1.081-6.539 3.015-1.307.909 2.899zm-2.105-12.851l.398 1.25c1.479-.512 3.125-1.137 4.777-1.762l-2.672-8.929a12.168 12.168 0 0 1-.796-.908l-1.707 10.349zm5.008-7.224L29 30.007c2.104-.795 4.152-1.592 5.629-2.16-3.071-.965-5.515-2.446-7.446-3.925z"></path><path d="M36.166 17.042c-1.82.854-4.21.854-6.369-.284-3.354-1.764-4.835-5.572-3.298-8.473 1.477-2.73 5.059-3.697 8.302-2.274 0 .169 0 .341-.058.511-2.503-.854-5.233 0-6.367 2.161-1.252 2.39-.059 5.573 2.785 7.051 1.592.797 3.356.91 4.832.399 0 .34.058.625.173.909z"></path><path d="M44.923 10.673a2.082 2.082 0 0 0-.625-.285l-.342.343c2.443 1.421 3.298 4.549 1.931 7.166-1.361 2.613-4.603 3.695-7.162 2.33-1.594-.852-2.559-2.389-2.731-4.094a2.78 2.78 0 0 0-.397.171c-.112 2.386 1.083 4.662 3.298 5.856 3.07 1.592 6.938.342 8.588-2.785 1.705-3.185.568-7.11-2.56-8.702z"></path><path d="M42.876 1.917c3.126 1.648 4.551 5.117 3.126 7.734a5.239 5.239 0 0 1-1.362 1.592c-.229-.228-.457-.342-.684-.512.285-.286.512-.568.684-.969 1.192-2.16 0-5.059-2.617-6.426-2.616-1.42-5.687-.737-6.825 1.479-.285.512-.396 1.138-.454 1.706-.171-.057-.341-.114-.567-.17-.058-.911.057-1.821.51-2.675 1.364-2.613 5.061-3.411 8.189-1.759z"></path><g><path d="M18.642 15.703c-2.015 1.397-4.474 3.241-7.436 1.956-1.397 2.628-4.196 3.412-7.605 2.572l.394 1.51 1.396 1.173c5.2.672 9.055-1.005 11.349-2.459l.169-.336.109.112a16.222 16.222 0 0 0 1.567-1.174l.504-2.069-.447-1.285zM6.285 24.2l3.467 5.143 1.733 1.176 1.509-2.91c-2.514-1.563-4.81-3.017-5.312-3.352-.444 0-.892 0-1.397-.057zm6.262 7.045l1.563-2.963c1.065.67 2.126 1.285 3.134 1.9l-1.679 3.074-3.018-2.011zm4.08 2.738l1.456.951.112-3.857-1.568 2.906zm-4.698-1.509l2.297 3.412.783-1.51-3.022-2.014-.058.112zm3.08 4.586l2.85 4.193.167-4.809-1.955-1.342-1.062 1.958zm3.241-8.889l-.449.895c-.947-.561-2.012-1.23-3.127-1.9l3.127-5.984c.225-.168.506-.392.729-.561l-.28 7.55zm-2.515-5.759l-2.124 4.082c-1.4-.896-2.74-1.733-3.745-2.349a17.83 17.83 0 0 0 5.869-1.733z"></path><path d="M10.311 16.261c1.174.894 2.853 1.175 4.529.67 2.626-.782 4.192-3.243 3.523-5.535-.674-2.123-3.078-3.354-5.593-2.796 0 .168 0 .28-.057.392 1.961-.224 3.748.728 4.25 2.404.561 1.902-.727 3.97-2.907 4.642-1.286.334-2.571.167-3.521-.392-.055.224-.169.448-.224.615z"></path><path d="M4.944 10.557c.169-.058.336-.112.502-.112.054.055.113.167.169.282-1.902.669-2.963 2.794-2.346 4.807.613 2.066 2.737 3.244 4.752 2.628 1.283-.334 2.179-1.341 2.514-2.516.111.057.166.111.278.167-.278 1.734-1.452 3.187-3.186 3.691-2.405.727-4.976-.671-5.703-3.133-.728-2.515.616-5.086 3.02-5.814z"></path><path d="M7.627 4.631c-2.46.727-3.915 2.963-3.297 5.032.166.505.391.949.727 1.287.224-.055.39-.168.559-.223a1.955 1.955 0 0 1-.336-.783c-.56-1.734.726-3.579 2.741-4.194 2.067-.615 4.135.225 4.638 1.956.111.449.169.895.055 1.286.168 0 .335 0 .45-.056.222-.613.222-1.284 0-1.956-.617-2.069-3.076-3.131-5.537-2.349z"></path></g></g></g><!----></svg>